<svg width="45" height="45" viewBox="0 0 45 45" fill="none" xmlns="http://www.w3.org/2000/svg">
<path fill-rule="evenodd" clip-rule="evenodd" d="M45 22.5C45 28.5328 42.6256 34.011 38.7607 38.0514C34.6786 42.3183 28.934 44.9814 22.5671 45H22.5H22.4329C16.066 44.9814 10.3213 42.3183 6.23935 38.0514C2.37426 34.011 0 28.5328 0 22.5C0 10.0736 10.0736 0 22.5 0C34.9264 0 45 10.0736 45 22.5ZM36.1376 33.75C32.8953 29.8237 27.9898 27.3213 22.5 27.3213C17.0102 27.3213 12.1048 29.8237 8.86227 33.75C12.1048 37.6763 17.0102 40.1786 22.5 40.1786C27.9898 40.1786 32.8953 37.6763 36.1376 33.75ZM22.5004 24.107C26.9384 24.107 30.5361 20.5093 30.5361 16.0713C30.5361 11.6333 26.9384 8.03562 22.5004 8.03562C18.0624 8.03562 14.4647 11.6333 14.4647 16.0713C14.4647 20.5093 18.0624 24.107 22.5004 24.107Z" fill="#7B7B7B"/>
</svg>
