<svg width="72" height="72" viewBox="0 0 72 72" fill="none" xmlns="http://www.w3.org/2000/svg">
<path d="M31.0468 57.9621C33.6769 60.1126 35.5403 63.0568 36.3582 66.3542C24.6273 69.5974 17.9499 69.7407 5.82251 66.3542C6.46217 63.7807 7.74192 61.4106 9.54288 59.4641C11.3438 57.5177 13.6076 56.058 16.1237 55.2207C18.6399 54.3834 21.3269 54.1957 23.9351 54.6749C26.5432 55.1542 28.9879 56.2849 31.0421 57.9621H31.0468Z" fill="white"/>
<path d="M21.4462 33.4972C21.7901 38.0491 25.5539 41.5263 30.0963 41.9323C34.3426 42.3049 38.5363 42.6584 43.6327 42.6584C48.7339 42.6584 52.9277 42.3049 57.1691 41.9323C61.7163 41.5263 65.4801 38.0491 65.824 33.4972C66.3017 27.2209 66.3017 21.0785 65.824 14.807C65.4801 10.2551 61.7163 6.77783 57.1691 6.37183C52.9277 6.00405 48.7339 5.64581 43.6327 5.64581C38.5363 5.64581 34.3426 5.99927 30.0963 6.37183C25.5539 6.77783 21.7853 10.2551 21.4462 14.807C20.9686 21.0832 20.9686 27.2257 21.4462 33.4972Z" fill="#D7E0FF"/>
<path d="M50.3102 28.8927C52.0774 30.3352 53.3241 32.3126 53.8734 34.5193C45.8729 36.7929 41.3926 36.7929 33.3921 34.5193C33.8208 32.7926 34.6791 31.2024 35.8873 29.8964C37.0955 28.5904 38.6143 27.6112 40.3025 27.0498C41.9907 26.4883 43.7935 26.3628 45.5432 26.685C47.2929 27.0073 48.9327 27.7667 50.3102 28.8927Z" fill="white"/>
<path d="M36.3582 66.3542C35.5101 62.9465 33.5464 59.9204 30.7796 57.7578C28.0128 55.5952 24.6021 54.4203 21.0904 54.4203C17.5787 54.4203 14.1679 55.5952 11.4011 57.7578C8.63434 59.9204 6.67059 62.9465 5.82251 66.3542" stroke="#4147D5" stroke-width="1.71" stroke-linecap="round" stroke-linejoin="round"/>
<path d="M53.8734 34.5193C53.3024 32.2355 51.9844 30.2082 50.1288 28.7595C48.2733 27.3108 45.9868 26.5239 43.6327 26.5239C41.2786 26.5239 38.9921 27.3108 37.1366 28.7595C35.2811 30.2082 33.9631 32.2355 33.3921 34.5193" stroke="#4147D5" stroke-width="1.71" stroke-linecap="round" stroke-linejoin="round"/>
<path d="M21.1214 27.0394C21.0259 23.0607 21.1262 19.1822 21.4271 15.0028C21.7567 10.4175 25.4918 6.83514 30.0724 6.41959C34.4667 6.01837 39.0043 5.64581 43.6375 5.64581C48.2706 5.64581 52.7987 6.01837 57.2025 6.41959C61.7736 6.83992 65.5135 10.4127 65.8431 14.9981C66.2956 21.0924 66.2956 27.2118 65.8431 33.3061C65.5135 37.8915 61.7784 41.4643 57.1978 41.8846C52.8034 42.2858 48.2658 42.6584 43.6327 42.6584C42.3049 42.6584 40.9818 42.6297 39.6683 42.5772" stroke="#4147D5" stroke-width="1.71" stroke-linecap="round" stroke-linejoin="round"/>
<path d="M21.088 54.4131C26.3182 54.4131 29.2557 51.4709 29.2557 46.2454C29.2557 41.0153 26.3182 38.0778 21.088 38.0778C15.8626 38.0778 12.9203 41.0153 12.9203 46.2454C12.9203 51.4709 15.8626 54.4131 21.088 54.4131Z" fill="white"/>
<path d="M21.088 54.4131C26.3182 54.4131 29.2557 51.4709 29.2557 46.2454C29.2557 41.0153 26.3182 38.0778 21.088 38.0778C15.8626 38.0778 12.9203 41.0153 12.9203 46.2454C12.9203 51.4709 15.8626 54.4131 21.088 54.4131Z" stroke="#4147D5" stroke-width="1.71" stroke-linecap="round" stroke-linejoin="round"/>
<path d="M43.6327 26.5093C47.6449 26.5093 49.9042 24.2548 49.9042 20.2378C49.9042 16.2256 47.6449 13.9664 43.6327 13.9664C39.6205 13.9664 37.3613 16.2256 37.3613 20.2378C37.3613 24.25 39.6205 26.5093 43.6327 26.5093Z" fill="white"/>
<path d="M43.6327 26.5093C47.6449 26.5093 49.9042 24.2548 49.9042 20.2378C49.9042 16.2256 47.6449 13.9664 43.6327 13.9664C39.6205 13.9664 37.3613 16.2256 37.3613 20.2378C37.3613 24.25 39.6205 26.5093 43.6327 26.5093Z" stroke="#4147D5" stroke-width="1.71" stroke-linecap="round" stroke-linejoin="round"/>
</svg>
