<svg width="24" height="24" viewBox="0 0 24 24" fill="none" xmlns="http://www.w3.org/2000/svg">
<path fill-rule="evenodd" clip-rule="evenodd" d="M2.91257 2.57143C2.86808 2.5712 2.82398 2.57977 2.78281 2.59664C2.74164 2.61351 2.7042 2.63835 2.67266 2.66973C2.64112 2.70112 2.61609 2.73842 2.59901 2.77951C2.58193 2.82059 2.57314 2.86465 2.57314 2.90914V17.5166H17.8629V13.4623C17.8629 13.1213 17.9983 12.7943 18.2394 12.5531C18.4806 12.312 18.8076 12.1766 19.1486 12.1766C19.4896 12.1766 19.8166 12.312 20.0577 12.5531C20.2988 12.7943 20.4343 13.1213 20.4343 13.4623V20.7686C20.4343 22.3749 19.1314 23.6777 17.5251 23.6777H2.90914C1.30286 23.6777 0 22.3749 0 20.7686V2.90914C0.000908615 2.13728 0.308169 1.39733 0.854284 0.85186C1.4004 0.306388 2.1407 -5.34793e-07 2.91257 0H13.4657C13.8067 0 14.1337 0.135459 14.3749 0.376577C14.616 0.617695 14.7514 0.944722 14.7514 1.28571C14.7514 1.62671 14.616 1.95373 14.3749 2.19485C14.1337 2.43597 13.8067 2.57143 13.4657 2.57143H2.91257ZM6.15943 4.99371C6.01873 4.99371 5.8794 5.02143 5.74941 5.07527C5.61942 5.12912 5.50131 5.20804 5.40181 5.30753C5.30232 5.40702 5.2234 5.52513 5.16956 5.65513C5.11571 5.78512 5.088 5.92444 5.088 6.06514C5.088 6.20584 5.11571 6.34517 5.16956 6.47516C5.2234 6.60515 5.30232 6.72327 5.40181 6.82276C5.50131 6.92225 5.61942 7.00117 5.74941 7.05501C5.8794 7.10886 6.01873 7.13657 6.15943 7.13657H9.40629C9.54699 7.13657 9.68631 7.10886 9.8163 7.05501C9.94629 7.00117 10.0644 6.92225 10.1639 6.82276C10.2634 6.72327 10.3423 6.60515 10.3962 6.47516C10.45 6.34517 10.4777 6.20584 10.4777 6.06514C10.4777 5.92444 10.45 5.78512 10.3962 5.65513C10.3423 5.52513 10.2634 5.40702 10.1639 5.30753C10.0644 5.20804 9.94629 5.12912 9.8163 5.07527C9.68631 5.02143 9.54699 4.99371 9.40629 4.99371H6.15943ZM5.088 10.9817C5.088 10.3903 5.568 9.91028 6.15943 9.91028H7.78286C8.06702 9.91028 8.33954 10.0232 8.54047 10.2241C8.7414 10.425 8.85429 10.6976 8.85429 10.9817C8.85429 11.2659 8.7414 11.5384 8.54047 11.7393C8.33954 11.9403 8.06702 12.0531 7.78286 12.0531H6.15943C5.87527 12.0531 5.60275 11.9403 5.40181 11.7393C5.20088 11.5384 5.088 11.2659 5.088 10.9817ZM15.9429 12.7543C16.1159 12.7229 16.2751 12.6392 16.3989 12.5143L23.4257 5.45486C23.5864 5.29549 23.7139 5.10589 23.801 4.89699C23.888 4.68809 23.9328 4.46402 23.9328 4.23771C23.9328 4.01141 23.888 3.78734 23.801 3.57844C23.7139 3.36954 23.5864 3.17994 23.4257 3.02057L21.6086 1.20343C21.4492 1.04275 21.2596 0.915218 21.0507 0.828186C20.8418 0.741154 20.6177 0.696346 20.3914 0.696346C20.1651 0.696346 19.9411 0.741154 19.7322 0.828186C19.5233 0.915218 19.3337 1.04275 19.1743 1.20343L12.1183 8.22514C11.9912 8.35214 11.9073 8.51585 11.8783 8.69314L11.2611 12.4337C11.2389 12.5693 11.2495 12.7082 11.2921 12.8388C11.3348 12.9693 11.4081 13.0878 11.5061 13.184C11.6041 13.2803 11.7238 13.3517 11.8551 13.392C11.9864 13.4324 12.1254 13.4406 12.2606 13.416L15.9429 12.7543Z" fill="black"/>
</svg>
