<svg width="24" height="24" viewBox="0 0 24 24" fill="none" xmlns="http://www.w3.org/2000/svg">
<path fill-rule="evenodd" clip-rule="evenodd" d="M14.1429 0C13.4328 0 12.8571 0.575633 12.8571 1.28571C12.8571 1.99579 13.4328 2.57143 14.1429 2.57143H22.7143C23.4243 2.57143 24 1.99579 24 1.28571C24 0.575633 23.4243 0 22.7143 0H14.1429ZM0 2.14202C0 1.19525 0.767511 0.427735 1.71429 0.427735H8.57143C9.51819 0.427735 10.2857 1.19525 10.2857 2.14202V9C10.2857 9.94677 9.51819 10.7143 8.57143 10.7143H1.71429C0.767511 10.7143 0 9.94677 0 9V2.14202ZM0 14.142C0 13.1953 0.767511 12.4277 1.71429 12.4277H8.57143C9.51819 12.4277 10.2857 13.1953 10.2857 14.142V21C10.2857 21.9468 9.51819 22.7143 8.57143 22.7143H1.71429C0.767511 22.7143 0 21.9468 0 21V14.142ZM12.8571 6.42857C12.8571 5.7185 13.4328 5.14286 14.1429 5.14286H22.7143C23.4243 5.14286 24 5.7185 24 6.42857C24 7.13865 23.4243 7.71429 22.7143 7.71429H14.1429C13.4328 7.71429 12.8571 7.13865 12.8571 6.42857ZM14.1429 10.2857C13.4328 10.2857 12.8571 10.8614 12.8571 11.5714C12.8571 12.2815 13.4328 12.8571 14.1429 12.8571H22.7143C23.4243 12.8571 24 12.2815 24 11.5714C24 10.8614 23.4243 10.2857 22.7143 10.2857H14.1429ZM12.8571 16.7143C12.8571 16.0042 13.4328 15.4286 14.1429 15.4286H22.7143C23.4243 15.4286 24 16.0042 24 16.7143C24 17.4243 23.4243 18 22.7143 18H14.1429C13.4328 18 12.8571 17.4243 12.8571 16.7143ZM14.1429 20.5714C13.4328 20.5714 12.8571 21.1471 12.8571 21.8571C12.8571 22.5672 13.4328 23.1429 14.1429 23.1429H22.7143C23.4243 23.1429 24 22.5672 24 21.8571C24 21.1471 23.4243 20.5714 22.7143 20.5714H14.1429Z" fill="black"/>
</svg>
