<svg width="72" height="72" viewBox="0 0 72 72" fill="none" xmlns="http://www.w3.org/2000/svg">
<path d="M8.75528 52.1634C9.0784 55.5271 10.5333 58.6815 12.882 61.111C15.2307 63.5404 18.3343 65.1009 21.6851 65.5374C25.6065 66.0151 29.6187 66.3972 33.6978 66.3972C37.7769 66.3972 41.7891 66.0151 45.7105 65.5374C49.0613 65.1009 52.1649 63.5404 54.5136 61.111C56.8623 58.6815 58.3172 55.5271 58.6403 52.1634C59.1132 47.0813 59.5096 41.8655 59.5096 36.5445C59.5096 31.2283 59.1132 26.0125 58.6403 20.9256C58.3172 17.5619 56.8623 14.4075 54.5136 11.9781C52.1649 9.54867 49.0613 7.9881 45.7105 7.55159C41.7938 7.07395 37.7816 6.69183 33.6978 6.69183C29.6187 6.69183 25.6065 7.07395 21.6851 7.55159C18.3343 7.9881 15.2307 9.54867 12.882 11.9781C10.5333 14.4075 9.0784 17.5619 8.75528 20.9256C8.28719 26.0125 7.89075 31.2283 7.89075 36.5445C7.89075 41.8655 8.28719 47.0813 8.75528 52.1634Z" fill="white"/>
<path d="M21.4224 65.504C14.721 64.6729 9.39055 59.0415 8.75529 52.1587C8.65917 51.1338 8.56842 50.1084 8.48303 49.0826H58.9126C58.8266 50.1144 58.7358 51.1365 58.6403 52.1587C58.005 59.0367 52.6793 64.6729 45.9732 65.504C41.9706 66.0007 37.8676 66.3972 33.6978 66.3972C29.528 66.3972 25.4298 66.0007 21.4224 65.504Z" fill="#D7E0FF"/>
<path d="M38.479 6.84468C36.8887 6.74572 35.2959 6.69475 33.7026 6.69183C29.4324 6.69183 25.234 7.09305 21.1358 7.58503C17.7824 8.01416 14.6738 9.56827 12.3182 11.9933C9.96257 14.4183 8.49937 17.5707 8.16777 20.9351C7.69013 26.0125 7.27936 31.2236 7.27936 36.5445C7.27936 41.8655 7.68535 47.0765 8.16777 52.1587C8.50039 55.5222 9.96405 58.6736 12.3196 61.0976C14.6751 63.5216 17.7831 65.0751 21.1358 65.504C25.234 66.0007 29.4324 66.3972 33.6978 66.3972C37.9679 66.3972 42.1664 66.0007 46.2646 65.504C49.6172 65.0751 52.7253 63.5216 55.0808 61.0976C57.4363 58.6736 58.9 55.5222 59.2326 52.1587C59.7102 47.0765 60.121 41.8607 60.121 36.5445C60.121 35.723 60.1114 34.9014 60.0923 34.0799" stroke="#4147D5" stroke-width="1.71" stroke-linecap="round" stroke-linejoin="round"/>
<path d="M21.1358 65.504C17.7831 65.0751 14.6751 63.5217 12.3196 61.0976C9.96405 58.6736 8.5004 55.5223 8.16778 52.1587C8.07225 51.1413 7.97672 50.1144 7.89075 49.0826H59.5096C59.4236 50.1144 59.3281 51.1365 59.2326 52.1587C58.9 55.5223 57.4363 58.6736 55.0808 61.0976C52.7253 63.5217 49.6172 65.0751 46.2646 65.504C42.1664 66.0007 37.9679 66.3972 33.7026 66.3972C29.4324 66.3972 25.234 66.0007 21.1358 65.504Z" stroke="#4147D5" stroke-width="1.71" stroke-linecap="round" stroke-linejoin="round"/>
<path d="M51.1222 7.63758L33.4685 25.6495L30.5692 36.4777C30.1393 38.0969 31.7633 39.7304 33.3825 39.3149L44.4495 36.4681L62.5999 19.2777C65.6186 16.4262 65.3846 11.3727 62.0888 8.12955C58.8695 4.96278 53.9594 4.74784 51.1222 7.64235V7.63758Z" fill="#D7E0FF"/>
<path d="M51.1222 7.63758L33.4685 25.6495L30.5692 36.4777C30.1393 38.0921 31.7633 39.7304 33.3825 39.3148L44.4495 36.4633L62.5999 19.2777C65.6186 16.4214 65.3846 11.368 62.0888 8.12955C58.8695 4.96278 53.9594 4.74784 51.1222 7.64235V7.63758Z" stroke="#4147D5" stroke-width="1.71" stroke-linecap="round" stroke-linejoin="round"/>
</svg>
