<svg width="24" height="24" viewBox="0 0 24 24" fill="none" xmlns="http://www.w3.org/2000/svg">
<g clip-path="url(#clip0_142_89)">
<path d="M22.19 1.81002C21.8494 1.47086 21.4451 1.20254 21.0002 1.02057C20.5553 0.838601 20.0788 0.746585 19.5982 0.749839C19.1176 0.753094 18.6424 0.851554 18.2 1.03953C17.7577 1.22751 17.3569 1.50128 17.021 1.84502L2.521 16.345L0.75 23.25L7.655 21.479L22.155 6.97902C22.4987 6.64309 22.7725 6.24237 22.9605 5.80001C23.1485 5.35766 23.2469 4.88245 23.2502 4.40182C23.2534 3.92119 23.1614 3.44469 22.9795 2.99983C22.7975 2.55497 22.5292 2.15058 22.19 1.81002Z" stroke="black" stroke-width="1.5" stroke-linecap="round" stroke-linejoin="round"/>
<path d="M16.606 2.26001L21.74 7.39401" stroke="black" stroke-width="1.5" stroke-linecap="round" stroke-linejoin="round"/>
<path d="M14.512 4.354L19.646 9.488" stroke="black" stroke-width="1.5" stroke-linecap="round" stroke-linejoin="round"/>
<path d="M2.521 16.345L7.66 21.474" stroke="black" stroke-width="1.5" stroke-linecap="round" stroke-linejoin="round"/>
</g>
<defs>
<clipPath id="clip0_142_89">
<rect width="24" height="24" fill="white"/>
</clipPath>
</defs>
</svg>
