<svg width="27" height="27" viewBox="0 0 27 27" fill="none" xmlns="http://www.w3.org/2000/svg">
<path d="M21.0938 5.90625V4.806C21.0954 4.5089 21.0385 4.21439 20.9264 3.93928C20.8141 3.66417 20.6488 3.41386 20.4399 3.20263C20.231 2.9914 19.9825 2.82339 19.7087 2.70819C19.4347 2.59299 19.1409 2.53287 18.8438 2.53125H3.09378C2.79668 2.53287 2.50281 2.59299 2.22895 2.70819C1.95508 2.82339 1.70659 2.9914 1.49766 3.20263C1.28872 3.41386 1.12344 3.66417 1.01125 3.93928C0.899061 4.21439 0.842155 4.5089 0.843784 4.806V15.444C0.842155 15.7411 0.899061 16.0356 1.01125 16.3107C1.12344 16.5859 1.28872 16.8362 1.49766 17.0474C1.70659 17.2586 1.95508 17.4266 2.22895 17.5418C2.50281 17.657 2.79668 17.7172 3.09378 17.7188" stroke="#7B7B7B" stroke-width="1.5" stroke-linecap="round" stroke-linejoin="round"/>
<path d="M12.7563 24.4686L17.7502 17.3732C17.8969 17.1636 18.0894 16.9903 18.3131 16.8661C18.5366 16.7418 18.7856 16.67 19.041 16.6562C19.2964 16.6423 19.5517 16.6866 19.7874 16.786C20.0232 16.8852 20.2333 17.0369 20.4018 17.2292L25.9571 23.5776" stroke="#7B7B7B" stroke-width="1.5" stroke-linecap="round" stroke-linejoin="round"/>
<path d="M12.2344 15.1875C12.0014 15.1875 11.8125 14.9986 11.8125 14.7656C11.8125 14.5326 12.0014 14.3438 12.2344 14.3438" stroke="#7B7B7B" stroke-width="1.5"/>
<path d="M12.2344 15.1875C12.4674 15.1875 12.6562 14.9986 12.6562 14.7656C12.6562 14.5326 12.4674 14.3438 12.2344 14.3438" stroke="#7B7B7B" stroke-width="1.5"/>
<path d="M25.0312 9.28125H7.875C7.25368 9.28125 6.75 9.78493 6.75 10.4062V23.3438C6.75 23.9651 7.25368 24.4688 7.875 24.4688H25.0312C25.6526 24.4688 26.1562 23.9651 26.1562 23.3438V10.4062C26.1562 9.78493 25.6526 9.28125 25.0312 9.28125Z" stroke="#7B7B7B" stroke-width="1.5" stroke-linecap="round" stroke-linejoin="round"/>
</svg>
