<svg width="130" height="130" viewBox="0 0 130 130" fill="none" xmlns="http://www.w3.org/2000/svg">
<path fill-rule="evenodd" clip-rule="evenodd" d="M130 65C130 82.4281 123.141 98.254 111.975 109.926C100.183 122.253 83.5872 129.946 65.194 130H65H64.806C46.4128 129.946 29.817 122.253 18.0248 109.926C6.85898 98.254 0 82.4281 0 65C0 29.1015 29.1015 0 65 0C100.899 0 130 29.1015 130 65ZM104.397 97.5C95.0309 86.1572 80.8594 78.9283 65 78.9283C49.1406 78.9283 34.9694 86.1572 25.6021 97.5C34.9694 108.842 49.1406 116.071 65 116.071C80.8594 116.071 95.0309 108.842 104.397 97.5ZM65.0011 69.6426C77.822 69.6426 88.2154 59.2492 88.2154 46.4283C88.2154 33.6074 77.822 23.214 65.0011 23.214C52.1802 23.214 41.7868 33.6074 41.7868 46.4283C41.7868 59.2492 52.1802 69.6426 65.0011 69.6426Z" fill="#3C6CA8"/>
</svg>
