<svg width="24" height="24" viewBox="0 0 24 24" fill="none" xmlns="http://www.w3.org/2000/svg">
<g clip-path="url(#clip0_112_336)">
<path fill-rule="evenodd" clip-rule="evenodd" d="M9.52629 1.18286L8.73258 3.23143L6.00001 4.78114L3.82287 4.44857C3.45978 4.39902 3.09017 4.45863 2.76107 4.61982C2.43198 4.78101 2.1583 5.03648 1.97487 5.35371L1.23772 6.64629C1.04845 6.96815 0.961214 7.33985 0.987534 7.71232C1.01386 8.08479 1.15249 8.44052 1.38515 8.73257L2.76858 10.4486V13.5514L1.42287 15.2674C1.19021 15.5595 1.05157 15.9152 1.02525 16.2877C0.998928 16.6602 1.08616 17.0318 1.27544 17.3537L2.01258 18.6463C2.19601 18.9635 2.46969 19.219 2.79879 19.3802C3.12788 19.5414 3.4975 19.601 3.86058 19.5514L6.03772 19.2189L8.73429 20.7686L9.52801 22.8189C9.6616 23.1654 9.89673 23.4636 10.2026 23.6744C10.5085 23.8851 10.8708 23.9986 11.2423 24H12.7937C13.166 23.9992 13.5292 23.8858 13.8358 23.6746C14.1424 23.4635 14.3779 23.1646 14.5114 22.8171L15.3052 20.7686L18 19.2189L20.1772 19.5514C20.5402 19.601 20.9099 19.5414 21.2389 19.3802C21.568 19.219 21.8417 18.9635 22.0252 18.6463L22.7623 17.3537C22.9516 17.0318 23.0388 16.6602 23.0125 16.2877C22.9862 15.9152 22.8475 15.5595 22.6149 15.2674L21.2314 13.5514V10.4486L22.5789 8.73257C22.8115 8.44052 22.9502 8.08479 22.9765 7.71232C23.0028 7.33985 22.9156 6.96815 22.7263 6.64629L21.9892 5.35371C21.8059 5.03632 21.5322 4.78071 21.2031 4.6195C20.874 4.45829 20.5043 4.39878 20.1412 4.44857L17.964 4.78114L15.2674 3.23143L14.4737 1.18114C14.3398 0.834415 14.1044 0.536174 13.7982 0.325435C13.4921 0.114696 13.1294 0.00127138 12.7577 0H11.2423C10.8704 0.00140541 10.5076 0.115081 10.2014 0.326142C9.89524 0.537202 9.65992 0.835808 9.52629 1.18286ZM12 15.8571C13.023 15.8571 14.0041 15.4508 14.7274 14.7274C15.4508 14.0041 15.8572 13.023 15.8572 12C15.8572 10.977 15.4508 9.99594 14.7274 9.27259C14.0041 8.54923 13.023 8.14286 12 8.14286C10.977 8.14286 9.99595 8.54923 9.2726 9.27259C8.54924 9.99594 8.14287 10.977 8.14287 12C8.14287 13.023 8.54924 14.0041 9.2726 14.7274C9.99595 15.4508 10.977 15.8571 12 15.8571Z" fill="black"/>
</g>
<defs>
<clipPath id="clip0_112_336">
<rect width="24" height="24" fill="white"/>
</clipPath>
</defs>
</svg>
