<svg width="70" height="74" viewBox="0 0 70 74" fill="none" xmlns="http://www.w3.org/2000/svg">
<path d="M68.2265 15.0944C67.5762 23.1023 65.7895 29.9358 64.0986 34.677C62.7835 38.3641 60.0202 40.9629 56.6546 41.7299C53.2066 42.5157 47.9808 43.3041 40.893 43.3041C35.9054 43.3041 31.6823 42.9137 28.3054 42.4085C22.3614 41.5192 18.1697 35.8591 17.2137 28.9714L14.4183 8.83405H63.0989C66.0721 8.83405 68.5064 11.6484 68.2265 15.0944Z" fill="#D7E0FF"/>
<path d="M68.2265 15.0944C67.5762 23.1023 65.7895 29.9358 64.0986 34.677C62.7835 38.3641 60.0202 40.9629 56.6546 41.7299C53.2066 42.5157 47.9808 43.3041 40.893 43.3041C35.9054 43.3041 31.6823 42.9137 28.3054 42.4085C22.3614 41.5192 18.1697 35.8591 17.2137 28.9714L14.4183 8.83405H63.0989C66.0721 8.83405 68.5064 11.6484 68.2265 15.0944Z" stroke="#4147D5" stroke-width="1.71" stroke-linecap="round" stroke-linejoin="round"/>
<path d="M60.4073 58.9726H30.5399C25.259 58.9726 20.7576 54.5131 19.9123 48.4442L14.7703 11.5282C13.925 5.45923 9.42353 1 4.14261 1H1.19151" stroke="#4147D5" stroke-width="1.71" stroke-linecap="round" stroke-linejoin="round"/>
<path d="M24.6276 72.9998C27.9549 72.9998 30.6522 69.8599 30.6522 65.9861C30.6522 62.1123 27.9549 58.9724 24.6276 58.9724C21.3003 58.9724 18.603 62.1123 18.603 65.9861C18.603 69.8599 21.3003 72.9998 24.6276 72.9998Z" fill="white"/>
<path d="M24.6276 72.9998C27.9549 72.9998 30.6522 69.8599 30.6522 65.9861C30.6522 62.1123 27.9549 58.9724 24.6276 58.9724C21.3003 58.9724 18.603 62.1123 18.603 65.9861C18.603 69.8599 21.3003 72.9998 24.6276 72.9998Z" stroke="#4147D5" stroke-width="1.71" stroke-linecap="round" stroke-linejoin="round"/>
<path d="M60.4073 72.9998C63.7347 72.9998 66.4317 69.8599 66.4317 65.9861C66.4317 62.1123 63.7347 58.9724 60.4073 58.9724C57.0799 58.9724 54.3829 62.1123 54.3829 65.9861C54.3829 69.8599 57.0799 72.9998 60.4073 72.9998Z" fill="white"/>
<path d="M60.4073 72.9998C63.7347 72.9998 66.4317 69.8599 66.4317 65.9861C66.4317 62.1123 63.7347 58.9724 60.4073 58.9724C57.0799 58.9724 54.3829 62.1123 54.3829 65.9861C54.3829 69.8599 57.0799 72.9998 60.4073 72.9998Z" stroke="#4147D5" stroke-width="1.71" stroke-linecap="round" stroke-linejoin="round"/>
</svg>
