<svg width="24" height="24" viewBox="0 0 24 24" fill="none" xmlns="http://www.w3.org/2000/svg">
<path fill-rule="evenodd" clip-rule="evenodd" d="M13.7143 1.71429C13.7143 0.767511 12.9468 0 12 0C11.0532 0 10.2857 0.767511 10.2857 1.71429V10.4176C10.2857 11.3644 11.0532 12.1319 12 12.1319C12.9468 12.1319 13.7143 11.3644 13.7143 10.4176V1.71429ZM6.72528 5.24376C7.47154 4.66113 7.60421 3.58383 7.02158 2.83757C6.43894 2.09129 5.36165 1.95864 4.61539 2.54126C2.64581 4.07895 1.20537 6.19311 0.495062 8.58878C-0.21525 10.9844 -0.160004 13.5421 0.653092 15.9048C1.46619 18.2676 2.99657 20.3175 5.03071 21.7687C7.06485 23.22 9.50126 24 12 24C14.4987 24 16.9352 23.22 18.9693 21.7687C21.0034 20.3175 22.5338 18.2676 23.3469 15.9048C24.1599 13.5421 24.2153 10.9844 23.5049 8.58878C22.7947 6.19311 21.3542 4.07895 19.3846 2.54126C18.6384 1.95864 17.561 2.09129 16.9784 2.83757C16.3958 3.58383 16.5285 4.66113 17.2747 5.24376C18.6816 6.3421 19.7105 7.85222 20.2178 9.5634C20.7252 11.2746 20.6858 13.1015 20.105 14.7891C19.5242 16.4768 18.431 17.941 16.9781 18.9777C15.5251 20.0143 13.7848 20.5714 12 20.5714C10.2152 20.5714 8.47488 20.0143 7.02194 18.9777C5.56898 17.941 4.47585 16.4768 3.89506 14.7891C3.31428 13.1015 3.27482 11.2746 3.78219 9.5634C4.28955 7.85222 5.31843 6.3421 6.72528 5.24376Z" fill="#D43825"/>
</svg>
