<svg width="25" height="24" viewBox="0 0 25 24" fill="none" xmlns="http://www.w3.org/2000/svg">
<path fill-rule="evenodd" clip-rule="evenodd" d="M14.1599 0C13.4499 0 12.8742 0.575633 12.8742 1.28571C12.8742 1.99579 13.4499 2.57143 14.1599 2.57143H22.7314C23.4414 2.57143 24.0171 1.99579 24.0171 1.28571C24.0171 0.575633 23.4414 0 22.7314 0H14.1599ZM0.0170898 2.14202C0.0170898 1.19525 0.784601 0.427735 1.73138 0.427735H8.58852C9.53528 0.427735 10.3028 1.19525 10.3028 2.14202V9C10.3028 9.94677 9.53528 10.7143 8.58852 10.7143H1.73138C0.784601 10.7143 0.0170898 9.94677 0.0170898 9V2.14202ZM0.0170898 14.142C0.0170898 13.1953 0.784601 12.4277 1.73138 12.4277H8.58852C9.53528 12.4277 10.3028 13.1953 10.3028 14.142V21C10.3028 21.9468 9.53528 22.7143 8.58852 22.7143H1.73138C0.784601 22.7143 0.0170898 21.9468 0.0170898 21V14.142ZM12.8742 6.42857C12.8742 5.7185 13.4499 5.14286 14.1599 5.14286H22.7314C23.4414 5.14286 24.0171 5.7185 24.0171 6.42857C24.0171 7.13865 23.4414 7.71429 22.7314 7.71429H14.1599C13.4499 7.71429 12.8742 7.13865 12.8742 6.42857ZM14.1599 10.2857C13.4499 10.2857 12.8742 10.8614 12.8742 11.5714C12.8742 12.2815 13.4499 12.8571 14.1599 12.8571H22.7314C23.4414 12.8571 24.0171 12.2815 24.0171 11.5714C24.0171 10.8614 23.4414 10.2857 22.7314 10.2857H14.1599ZM12.8742 16.7143C12.8742 16.0042 13.4499 15.4286 14.1599 15.4286H22.7314C23.4414 15.4286 24.0171 16.0042 24.0171 16.7143C24.0171 17.4243 23.4414 18 22.7314 18H14.1599C13.4499 18 12.8742 17.4243 12.8742 16.7143ZM14.1599 20.5714C13.4499 20.5714 12.8742 21.1471 12.8742 21.8571C12.8742 22.5672 13.4499 23.1429 14.1599 23.1429H22.7314C23.4414 23.1429 24.0171 22.5672 24.0171 21.8571C24.0171 21.1471 23.4414 20.5714 22.7314 20.5714H14.1599Z" fill="black"/>
</svg>
