<svg width="24" height="24" viewBox="0 0 24 24" fill="none" xmlns="http://www.w3.org/2000/svg">
<path fill-rule="evenodd" clip-rule="evenodd" d="M2.92966 2.57143C2.88517 2.5712 2.84107 2.57977 2.7999 2.59664C2.75873 2.61351 2.72129 2.63835 2.68975 2.66973C2.65821 2.70112 2.63318 2.73842 2.6161 2.77951C2.59902 2.82059 2.59023 2.86465 2.59023 2.90914V17.5166H17.8799V13.4623C17.8799 13.1213 18.0154 12.7943 18.2565 12.5531C18.4976 12.312 18.8247 12.1766 19.1657 12.1766C19.5067 12.1766 19.8337 12.312 20.0748 12.5531C20.3159 12.7943 20.4514 13.1213 20.4514 13.4623V20.7686C20.4514 22.3749 19.1485 23.6777 17.5422 23.6777H2.92623C1.31995 23.6777 0.0170898 22.3749 0.0170898 20.7686V2.90914C0.0179985 2.13728 0.325259 1.39733 0.871373 0.85186C1.41749 0.306388 2.15779 -5.34793e-07 2.92966 0H13.4828C13.8238 0 14.1508 0.135459 14.3919 0.376577C14.6331 0.617695 14.7685 0.944722 14.7685 1.28571C14.7685 1.62671 14.6331 1.95373 14.3919 2.19485C14.1508 2.43597 13.8238 2.57143 13.4828 2.57143H2.92966ZM6.17652 4.99371C6.03582 4.99371 5.89649 5.02143 5.7665 5.07527C5.63651 5.12912 5.5184 5.20804 5.4189 5.30753C5.31941 5.40702 5.24049 5.52513 5.18665 5.65513C5.1328 5.78512 5.10509 5.92444 5.10509 6.06514C5.10509 6.20584 5.1328 6.34517 5.18665 6.47516C5.24049 6.60515 5.31941 6.72327 5.4189 6.82276C5.5184 6.92225 5.63651 7.00117 5.7665 7.05501C5.89649 7.10886 6.03582 7.13657 6.17652 7.13657H9.42338C9.56408 7.13657 9.7034 7.10886 9.83339 7.05501C9.96338 7.00117 10.0815 6.92225 10.181 6.82276C10.2805 6.72327 10.3594 6.60515 10.4132 6.47516C10.4671 6.34517 10.4948 6.20584 10.4948 6.06514C10.4948 5.92444 10.4671 5.78512 10.4132 5.65513C10.3594 5.52513 10.2805 5.40702 10.181 5.30753C10.0815 5.20804 9.96338 5.12912 9.83339 5.07527C9.7034 5.02143 9.56408 4.99371 9.42338 4.99371H6.17652ZM5.10509 10.9817C5.10509 10.3903 5.58509 9.91028 6.17652 9.91028H7.79995C8.08411 9.91028 8.35663 10.0232 8.55756 10.2241C8.75849 10.425 8.87138 10.6976 8.87138 10.9817C8.87138 11.2659 8.75849 11.5384 8.55756 11.7393C8.35663 11.9403 8.08411 12.0531 7.79995 12.0531H6.17652C5.89236 12.0531 5.61984 11.9403 5.4189 11.7393C5.21797 11.5384 5.10509 11.2659 5.10509 10.9817ZM15.9599 12.7543C16.133 12.7229 16.2922 12.6392 16.4159 12.5143L23.4428 5.45486C23.6035 5.29549 23.731 5.10589 23.818 4.89699C23.9051 4.68809 23.9499 4.46402 23.9499 4.23771C23.9499 4.01141 23.9051 3.78734 23.818 3.57844C23.731 3.36954 23.6035 3.17994 23.4428 3.02057L21.6257 1.20343C21.4663 1.04275 21.2767 0.915218 21.0678 0.828186C20.8589 0.741154 20.6348 0.696346 20.4085 0.696346C20.1822 0.696346 19.9581 0.741154 19.7492 0.828186C19.5403 0.915218 19.3507 1.04275 19.1914 1.20343L12.1354 8.22514C12.0083 8.35214 11.9244 8.51585 11.8954 8.69314L11.2782 12.4337C11.256 12.5693 11.2666 12.7082 11.3092 12.8388C11.3518 12.9693 11.4252 13.0878 11.5232 13.184C11.6212 13.2803 11.7408 13.3517 11.8721 13.392C12.0034 13.4324 12.1425 13.4406 12.2777 13.416L15.9599 12.7543Z" fill="black"/>
</svg>
