<svg width="24" height="24" viewBox="0 0 24 24" fill="none" xmlns="http://www.w3.org/2000/svg">
<path fill-rule="evenodd" clip-rule="evenodd" d="M9.54335 1.18286L8.74964 3.23143L6.01707 4.78114L3.83993 4.44857C3.47684 4.39902 3.10723 4.45863 2.77813 4.61982C2.44904 4.78101 2.17536 5.03648 1.99193 5.35371L1.25478 6.64629C1.06551 6.96815 0.978273 7.33985 1.00459 7.71232C1.03091 8.08479 1.16955 8.44052 1.40221 8.73257L2.78564 10.4486V13.5514L1.43993 15.2674C1.20727 15.5595 1.06863 15.9152 1.04231 16.2877C1.01599 16.6602 1.10322 17.0318 1.2925 17.3537L2.02964 18.6463C2.21307 18.9635 2.48675 19.219 2.81585 19.3802C3.14494 19.5414 3.51456 19.601 3.87764 19.5514L6.05478 19.2189L8.75135 20.7686L9.54507 22.8189C9.67866 23.1654 9.91378 23.4636 10.2197 23.6744C10.5255 23.8851 10.8879 23.9986 11.2594 24H12.8108C13.183 23.9992 13.5463 23.8858 13.8529 23.6746C14.1594 23.4635 14.395 23.1646 14.5285 22.8171L15.3222 20.7686L18.0171 19.2189L20.1942 19.5514C20.5573 19.601 20.9269 19.5414 21.256 19.3802C21.5851 19.219 21.8588 18.9635 22.0422 18.6463L22.7794 17.3537C22.9686 17.0318 23.0559 16.6602 23.0295 16.2877C23.0032 15.9152 22.8646 15.5595 22.6319 15.2674L21.2485 13.5514V10.4486L22.5959 8.73257C22.8286 8.44052 22.9672 8.08479 22.9935 7.71232C23.0199 7.33985 22.9326 6.96815 22.7434 6.64629L22.0062 5.35371C21.823 5.03632 21.5493 4.78071 21.2202 4.6195C20.891 4.45829 20.5213 4.39878 20.1582 4.44857L17.9811 4.78114L15.2845 3.23143L14.4908 1.18114C14.3569 0.834415 14.1214 0.536174 13.8153 0.325435C13.5091 0.114696 13.1465 0.00127138 12.7748 0H11.2594C10.8875 0.00140541 10.5247 0.115081 10.2185 0.326142C9.9123 0.537202 9.67698 0.835808 9.54335 1.18286ZM12.0171 15.8571C13.04 15.8571 14.0211 15.4508 14.7445 14.7274C15.4678 14.0041 15.8742 13.023 15.8742 12C15.8742 10.977 15.4678 9.99594 14.7445 9.27259C14.0211 8.54923 13.04 8.14286 12.0171 8.14286C10.9941 8.14286 10.013 8.54923 9.28966 9.27259C8.5663 9.99594 8.15993 10.977 8.15993 12C8.15993 13.023 8.5663 14.0041 9.28966 14.7274C10.013 15.4508 10.9941 15.8571 12.0171 15.8571Z" fill="#3C6CA8"/>
</svg>
